# xmcd CD database file
#
# Track frame offsets:
#	150
#	12722
#	26924
#	44170
#	52453
#	70604
#	86318
#	97687
#	110409
#	122981
#	141483
#	156304
#
# Disc length: 2281 seconds
#
# Revision: 0
# Processed by: cddbd v1.5.2PL0 Copyright (c) Steve Scherf et al.
# Submitted via: CDex 1.51
#
DISCID=b008e70c
DTITLE=Tim Janis - The Journey Home
DYEAR=2010
DGENRE=New Age
TTITLE0=The Journey Home
TTITLE1=Memory's Tender Chime
TTITLE2=Drifting With The Wind
TTITLE3=Majestic Flight
TTITLE4=Still Moonlit Waters
TTITLE5=Above The Sparkling Sea
TTITLE6=Soaring Again
TTITLE7=The Magnificent Monarch Migration
TTITLE8=Chrysalises
TTITLE9=Evening Peace
TTITLE10=Under The Eaves Of Heaven
TTITLE11=Between Our Hearts
EXTD=YEAR: 2010
EXTT0=
EXTT1=
EXTT2=
EXTT3=
EXTT4=
EXTT5=
EXTT6=
EXTT7=
EXTT8=
EXTT9=
EXTT10=
EXTT11=
PLAYORDER=
